<svg width="251" height="62" viewBox="0 0 251 62" fill="none" xmlns="http://www.w3.org/2000/svg">
<g clip-path="url(#clip0_1_64)">
<path d="M12.6619 38.9199C10.4341 38.9199 8.62158 40.7324 8.62158 42.9603C8.62158 45.1881 10.4341 47.0006 12.6619 47.0006C14.8898 47.0006 16.7023 45.1881 16.7023 42.9603C16.7023 40.7324 14.8897 38.9199 12.6619 38.9199ZM12.6619 44.5764C11.7706 44.5764 11.0458 43.8516 11.0458 42.9603C11.0458 42.069 11.7706 41.3442 12.6619 41.3442C13.5528 41.3442 14.2781 42.069 14.2781 42.9603C14.2781 43.8515 13.5533 44.5764 12.6619 44.5764Z" fill="white"/>
<path d="M24.6212 38.9199C22.3933 38.9199 20.5808 40.7324 20.5808 42.9603C20.5808 45.1881 22.3933 47.0006 24.6212 47.0006C26.849 47.0006 28.6615 45.1881 28.6615 42.9603C28.6615 40.7324 26.849 38.9199 24.6212 38.9199ZM24.6212 44.5764C23.7299 44.5764 23.0051 43.8516 23.0051 42.9603C23.0051 42.069 23.7299 41.3442 24.6212 41.3442C25.5125 41.3442 26.2373 42.069 26.2373 42.9603C26.2373 43.8515 25.5125 44.5764 24.6212 44.5764Z" fill="white"/>
<path d="M31.6304 22.8921C31.4001 22.6028 31.0511 22.4344 30.6818 22.4344H9.4579L8.3561 16.8659C8.25953 16.3783 7.87491 15.9989 7.3856 15.9092L2.53718 15.0203C1.87743 14.8987 1.24712 15.3355 1.12631 15.9941C1.0055 16.6526 1.44144 17.2841 2.10006 17.4049L6.13798 18.1451L9.69509 36.1242C9.8074 36.6919 10.3056 37.1012 10.8841 37.1012H27.8536C28.418 37.1012 28.9073 36.7121 29.0346 36.1614L31.8628 23.9192C31.946 23.5592 31.8604 23.181 31.6304 22.8921ZM26.8895 34.677H11.8796L9.93746 24.859H29.1573L26.8895 34.677Z" fill="white"/>
</g>
<path d="M31.5 16C31.5 11.0294 35.5294 7 40.5 7H43.5C48.4706 7 52.5 11.0294 52.5 16C52.5 20.9706 48.4706 25 43.5 25H40.5C35.5294 25 31.5 20.9706 31.5 16Z" fill="white"/>
<path d="M39.3711 20C39.1218 20 38.8944 19.9413 38.6891 19.824C38.4911 19.6993 38.3334 19.538 38.2161 19.34C38.0988 19.1347 38.0401 18.911 38.0401 18.669V13.422C38.0401 13.1727 38.0988 12.949 38.2161 12.751C38.3334 12.5457 38.4911 12.3843 38.6891 12.267C38.8944 12.1423 39.1218 12.08 39.3711 12.08H44.7061C44.9481 12.08 45.1681 12.1423 45.3661 12.267C45.5714 12.3843 45.7328 12.5457 45.8501 12.751C45.9748 12.949 46.0371 13.1727 46.0371 13.422V18.669C46.0371 18.911 45.9748 19.1347 45.8501 19.34C45.7328 19.538 45.5714 19.6993 45.3661 19.824C45.1681 19.9413 44.9481 20 44.7061 20H39.3711ZM39.0521 19.098H44.7061C44.8234 19.098 44.9224 19.0577 45.0031 18.977C45.0911 18.889 45.1351 18.7863 45.1351 18.669V14.082L39.0521 19.098ZM38.9421 18.009L45.0141 12.993H39.3711C39.2538 12.993 39.1511 13.037 39.0631 13.125C38.9824 13.2057 38.9421 13.3047 38.9421 13.422V18.009Z" fill="#141820"/>
<path d="M73 0.5H250V61.5H73V0.5Z" stroke="white"/>
<path d="M106.668 38C106.272 38 105.906 37.904 105.57 37.712C105.246 37.52 104.988 37.262 104.796 36.938C104.604 36.602 104.508 36.236 104.508 35.84V27.2C104.508 26.804 104.604 26.444 104.796 26.12C104.988 25.784 105.246 25.52 105.57 25.328C105.906 25.136 106.272 25.04 106.668 25.04H117.432V26.498H106.668C106.476 26.498 106.308 26.57 106.164 26.714C106.032 26.846 105.966 27.008 105.966 27.2V35.84C105.966 36.032 106.032 36.2 106.164 36.344C106.308 36.476 106.476 36.542 106.668 36.542H117.432V38H106.668ZM121.397 38C121.001 38 120.635 37.904 120.299 37.712C119.975 37.508 119.711 37.244 119.507 36.92C119.315 36.584 119.219 36.218 119.219 35.822V29.738C119.219 29.342 119.315 28.982 119.507 28.658C119.711 28.322 119.975 28.058 120.299 27.866C120.635 27.662 121.001 27.56 121.397 27.56H127.661C128.069 27.56 128.435 27.662 128.759 27.866C129.095 28.058 129.359 28.322 129.551 28.658C129.755 28.982 129.857 29.342 129.857 29.738V35.822C129.857 36.218 129.755 36.584 129.551 36.92C129.359 37.244 129.095 37.508 128.759 37.712C128.435 37.904 128.069 38 127.661 38H121.397ZM121.397 36.524H127.661C127.853 36.524 128.015 36.458 128.147 36.326C128.291 36.182 128.363 36.014 128.363 35.822V29.738C128.363 29.546 128.291 29.384 128.147 29.252C128.015 29.108 127.853 29.036 127.661 29.036H121.397C121.205 29.036 121.037 29.108 120.893 29.252C120.761 29.384 120.695 29.546 120.695 29.738V35.822C120.695 36.014 120.761 36.182 120.893 36.326C121.037 36.458 121.205 36.524 121.397 36.524ZM131.472 38V27.56H139.932C140.328 27.56 140.688 27.662 141.012 27.866C141.348 28.058 141.612 28.322 141.804 28.658C142.008 28.982 142.11 29.342 142.11 29.738V38H140.634V29.738C140.634 29.546 140.562 29.384 140.418 29.252C140.286 29.108 140.124 29.036 139.932 29.036H133.668C133.476 29.036 133.308 29.108 133.164 29.252C133.02 29.384 132.948 29.546 132.948 29.738V38H131.472ZM146.165 38C145.757 38 145.385 37.904 145.049 37.712C144.725 37.508 144.467 37.244 144.275 36.92C144.083 36.584 143.987 36.218 143.987 35.822V24.14H145.463V27.56H149.981V29.036H145.463V35.822C145.463 36.014 145.529 36.182 145.661 36.326C145.805 36.458 145.973 36.524 146.165 36.524H149.981V38H146.165ZM153.53 38C153.134 38 152.768 37.904 152.432 37.712C152.108 37.508 151.844 37.244 151.64 36.92C151.448 36.584 151.352 36.218 151.352 35.822V32.042H160.496V29.738C160.496 29.546 160.424 29.384 160.28 29.252C160.148 29.108 159.986 29.036 159.794 29.036H151.352V27.56H159.794C160.202 27.56 160.568 27.662 160.892 27.866C161.228 28.058 161.492 28.322 161.684 28.658C161.888 28.982 161.99 29.342 161.99 29.738V38H153.53ZM153.53 36.524H160.496V33.518H152.828V35.822C152.828 36.014 152.894 36.182 153.026 36.326C153.17 36.458 153.338 36.524 153.53 36.524ZM165.834 38C165.438 38 165.072 37.904 164.736 37.712C164.412 37.508 164.148 37.244 163.944 36.92C163.752 36.584 163.656 36.218 163.656 35.822V29.738C163.656 29.342 163.752 28.982 163.944 28.658C164.148 28.322 164.412 28.058 164.736 27.866C165.072 27.662 165.438 27.56 165.834 27.56H174.258V29.036H165.834C165.642 29.036 165.474 29.108 165.33 29.252C165.198 29.384 165.132 29.546 165.132 29.738V35.822C165.132 36.014 165.198 36.182 165.33 36.326C165.474 36.458 165.642 36.524 165.834 36.524H174.294V38H165.834ZM177.929 38C177.521 38 177.149 37.904 176.813 37.712C176.489 37.508 176.231 37.244 176.039 36.92C175.847 36.584 175.751 36.218 175.751 35.822V24.14H177.227V27.56H181.745V29.036H177.227V35.822C177.227 36.014 177.293 36.182 177.425 36.326C177.569 36.458 177.737 36.524 177.929 36.524H181.745V38H177.929ZM190.216 38C189.82 38 189.454 37.904 189.118 37.712C188.794 37.52 188.536 37.262 188.344 36.938C188.152 36.602 188.056 36.236 188.056 35.84V25.04H189.514V35.84C189.514 36.032 189.58 36.2 189.712 36.344C189.856 36.476 190.024 36.542 190.216 36.542H198.856C199.048 36.542 199.21 36.476 199.342 36.344C199.486 36.2 199.558 36.032 199.558 35.84V25.04H201.016V35.84C201.016 36.236 200.92 36.602 200.728 36.938C200.536 37.262 200.272 37.52 199.936 37.712C199.612 37.904 199.252 38 198.856 38H190.216ZM205.032 38C204.636 38 204.27 37.904 203.934 37.712C203.61 37.508 203.346 37.244 203.142 36.92C202.95 36.584 202.854 36.218 202.854 35.822V35.678H204.33V35.822C204.33 36.014 204.396 36.182 204.528 36.326C204.672 36.458 204.84 36.524 205.032 36.524H211.296C211.488 36.524 211.65 36.458 211.782 36.326C211.926 36.182 211.998 36.014 211.998 35.822V34.22C211.998 34.028 211.926 33.866 211.782 33.734C211.65 33.59 211.488 33.518 211.296 33.518H205.032C204.636 33.518 204.27 33.422 203.934 33.23C203.61 33.026 203.346 32.762 203.142 32.438C202.95 32.102 202.854 31.736 202.854 31.34V29.738C202.854 29.342 202.95 28.982 203.142 28.658C203.346 28.322 203.61 28.058 203.934 27.866C204.27 27.662 204.636 27.56 205.032 27.56H211.296C211.704 27.56 212.07 27.662 212.394 27.866C212.73 28.058 212.994 28.322 213.186 28.658C213.39 28.982 213.492 29.342 213.492 29.738V29.882H211.998V29.738C211.998 29.546 211.926 29.384 211.782 29.252C211.65 29.108 211.488 29.036 211.296 29.036H205.032C204.84 29.036 204.672 29.108 204.528 29.252C204.396 29.384 204.33 29.546 204.33 29.738V31.34C204.33 31.532 204.396 31.7 204.528 31.844C204.672 31.976 204.84 32.042 205.032 32.042H211.296C211.704 32.042 212.07 32.144 212.394 32.348C212.73 32.54 212.994 32.804 213.186 33.14C213.39 33.464 213.492 33.824 213.492 34.22V35.822C213.492 36.218 213.39 36.584 213.186 36.92C212.994 37.244 212.73 37.508 212.394 37.712C212.07 37.904 211.704 38 211.296 38H205.032Z" fill="white"/>
<defs>
<clipPath id="clip0_1_64">
<rect width="32" height="32" fill="white" transform="translate(0.5 15)"/>
</clipPath>
</defs>
</svg>
